<svg width="36" height="36" viewBox="0 0 36 36" fill="none" xmlns="http://www.w3.org/2000/svg">
<path d="M17.6491 0H18.2992C21.1026 0.0488672 23.894 0.754453 26.3727 2.06859C28.7684 3.33035 30.8704 5.14266 32.477 7.3227C34.3288 9.82582 35.5116 12.8194 35.863 15.9145C35.9364 16.5452 35.9687 17.1798 36 17.8137V18.1853C35.9617 18.978 35.9178 19.7719 35.8022 20.5576C35.4076 23.3596 34.3323 26.0617 32.6977 28.3707C31.1955 30.5023 29.2256 32.3019 26.9665 33.6038C24.6456 34.9464 22.019 35.7543 19.3449 35.9497C19.028 35.9757 18.7099 35.9838 18.3923 36H17.6839C15.6603 35.9613 13.6415 35.5911 11.7433 34.8848C9.48601 34.0502 7.40298 32.7523 5.65307 31.1003C3.62767 29.193 2.05064 26.8112 1.09486 24.197C-0.0513629 21.0814 -0.300497 17.6463 0.361167 14.3944C0.867165 11.8937 1.91922 9.50625 3.41824 7.44258C5.15129 5.04809 7.48134 3.08883 10.141 1.79965C12.4732 0.660937 15.0559 0.0523828 17.6491 0ZM14.7256 3.92484C13.8278 4.75137 13.1208 5.76352 12.5332 6.82805C11.516 8.69027 10.8645 10.735 10.4622 12.8134C10.4042 13.0816 10.3894 13.3671 10.2475 13.609C10.0194 14.0368 9.53204 14.3149 9.04607 14.2696C8.53059 14.2393 8.05938 13.8421 7.95642 13.3334C7.89001 13.0623 7.96872 12.7888 8.01405 12.5216C8.3433 10.7522 8.84051 9.00984 9.5475 7.35293C10.0707 6.1309 10.7088 4.95387 11.4956 3.88055C8.89392 5.07867 6.63731 7.01227 5.05431 9.40008C3.60061 11.5748 2.71687 14.1261 2.51096 16.7344C5.05395 16.7344 7.5966 16.7344 10.1396 16.7344C10.8297 16.7245 11.5279 16.7762 12.2093 16.6391C13.5259 16.3986 14.7414 15.6625 15.5724 14.6137C16.3549 13.6392 16.7935 12.3957 16.7966 11.1452C16.7959 8.31621 16.798 5.48719 16.7956 2.65816C16.0187 2.9127 15.3254 3.37605 14.7256 3.92484ZM19.2571 2.68102C19.2557 5.30297 19.2567 7.92492 19.2564 10.5469C19.2588 10.947 19.2434 11.3484 19.2918 11.7464C19.4289 12.9966 20.0062 14.1912 20.8956 15.0792C21.7055 15.8966 22.7723 16.4559 23.9066 16.6504C24.5894 16.7762 25.2862 16.7242 25.9763 16.733C25.8449 13.892 25.3139 11.0479 24.2144 8.41676C23.6607 7.10578 22.9621 5.84473 22.046 4.75066C21.2934 3.86156 20.3699 3.0709 19.2571 2.68102ZM24.4875 3.88125C25.3849 5.10504 26.0891 6.46242 26.6485 7.87078C27.7614 10.69 28.3113 13.712 28.4374 16.7344C30.1157 16.7344 31.7939 16.7344 33.4721 16.7344C33.2518 13.931 32.2437 11.1969 30.5964 8.91914C29.0369 6.75281 26.9124 4.99676 24.4875 3.88125ZM17.9942 14.978C17.7138 16.1012 16.947 17.0919 15.9224 17.6326C15.6297 17.7971 15.3089 17.8995 14.993 18.0053C15.3721 18.1034 15.7386 18.2528 16.0756 18.4528C17.0219 19.0083 17.7299 19.954 17.9903 21.0206C18.0908 20.6325 18.2412 20.2567 18.4471 19.9121C19.0055 18.9622 19.9577 18.2514 21.0309 17.9972C19.5596 17.6688 18.3403 16.4429 17.9942 14.978ZM2.50534 19.1953C2.71758 22.0725 3.76085 24.8797 5.47351 27.2C7.02454 29.315 9.11986 31.0229 11.4991 32.1233C10.6101 30.9136 9.91154 29.5717 9.35424 28.1798C8.21926 25.3245 7.66371 22.2595 7.54248 19.1957C5.86355 19.195 4.18427 19.1953 2.50534 19.1953ZM10.0036 19.1964C10.083 21.0551 10.3378 22.9089 10.8055 24.7106C11.1614 26.0814 11.6414 27.4229 12.2778 28.6889C12.8305 29.7724 13.4932 30.8109 14.3359 31.6934C15.0228 32.4102 15.844 33.0286 16.7952 33.3418C16.798 30.49 16.7959 27.6381 16.7966 24.7866C16.7949 23.4432 16.2864 22.1105 15.3964 21.1057C14.5839 20.1772 13.4581 19.5275 12.2458 19.2976C11.5079 19.1457 10.7514 19.2076 10.0036 19.1964ZM20.7062 21.0502C19.9289 21.9062 19.4268 23.0077 19.295 24.1569C19.2391 24.5988 19.2606 25.0453 19.2564 25.4893C19.2567 28.0993 19.256 30.709 19.2567 33.3186C19.7912 33.1337 20.2873 32.8493 20.7375 32.5086C21.8953 31.6248 22.7618 30.4179 23.4604 29.1523C24.492 27.257 25.146 25.1747 25.5448 23.0593C25.5908 22.8371 25.6056 22.6041 25.7082 22.3977C25.8709 22.0426 26.2022 21.7673 26.5856 21.6854C27.0241 21.5831 27.5119 21.7473 27.7958 22.0978C28.0094 22.3538 28.1057 22.7032 28.0477 23.0326C27.7508 24.788 27.2901 26.5191 26.6309 28.1742C26.0736 29.5664 25.3747 30.908 24.4875 32.1191C26.7599 31.0722 28.7705 29.4655 30.2966 27.4823C32.1347 25.1089 33.2567 22.1903 33.4774 19.1957C30.6051 19.195 27.7329 19.1957 24.8606 19.1953C23.2959 19.1897 21.7488 19.884 20.7062 21.0502Z" fill="url(#paint0_linear_3632_8772)"/>
<defs>
<linearGradient id="paint0_linear_3632_8772" x1="0" y1="0" x2="36" y2="36" gradientUnits="userSpaceOnUse">
<stop stop-color="#FFE100"/>
<stop offset="1" stop-color="#84FF00"/>
</linearGradient>
</defs>
</svg>
